<mxfile host="app.diagrams.net" modified="2021-02-17T04:20:46.812Z" agent="5.0 (Macintosh; Intel Mac OS X 10_13_6) AppleWebKit/537.36 (KHTML, like Gecko) Chrome/88.0.4324.150 Safari/537.36" etag="VTw0dEkw-R9GsI8K3-1F" version="14.3.2" type="github">
  <diagram id="lnOLNIAgYYnG8vhcsxSH" name="Page-1">
    <mxGraphModel dx="946" dy="511" grid="1" gridSize="10" guides="1" tooltips="1" connect="1" arrows="1" fold="1" page="1" pageScale="1" pageWidth="827" pageHeight="1169" math="0" shadow="0">
      <root>
        <mxCell id="0" />
        <mxCell id="1" parent="0" />
        <mxCell id="kjA-p8as145tHWLBYu3--1" value="" style="rounded=1;whiteSpace=wrap;html=1;arcSize=3;strokeWidth=1;glass=0;shadow=0;sketch=1;fillColor=#f9f7ed;strokeColor=#36393d;" vertex="1" parent="1">
          <mxGeometry x="180" y="191" width="360" height="90" as="geometry" />
        </mxCell>
        <mxCell id="kjA-p8as145tHWLBYu3--2" value="博主微信：wucode555" style="text;html=1;strokeColor=none;fillColor=none;align=center;verticalAlign=middle;whiteSpace=wrap;rounded=0;shadow=0;glass=0;sketch=1;" vertex="1" parent="1">
          <mxGeometry x="192" y="203" width="130" height="20" as="geometry" />
        </mxCell>
        <mxCell id="kjA-p8as145tHWLBYu3--3" value="备注「&lt;font color=&quot;#ff0000&quot;&gt;&lt;b&gt;加群&lt;/b&gt;&lt;/font&gt;」，带你进入高手如云交流社群" style="text;html=1;strokeColor=none;fillColor=none;align=center;verticalAlign=middle;whiteSpace=wrap;rounded=0;shadow=0;glass=0;sketch=1;" vertex="1" parent="1">
          <mxGeometry x="235" y="230" width="250" height="20" as="geometry" />
        </mxCell>
        <mxCell id="kjA-p8as145tHWLBYu3--4" value="备注「&lt;font color=&quot;#ff0000&quot;&gt;&lt;b&gt;网络&lt;/b&gt;&lt;/font&gt;」，送你一份精选网络学习宝典" style="text;html=1;strokeColor=none;fillColor=none;align=center;verticalAlign=middle;whiteSpace=wrap;rounded=0;shadow=0;glass=0;sketch=1;" vertex="1" parent="1">
          <mxGeometry x="235" y="250" width="250" height="20" as="geometry" />
        </mxCell>
        <mxCell id="kjA-p8as145tHWLBYu3--5" value="公众号：5分钟学网络(id: learnnet5)" style="text;html=1;strokeColor=none;fillColor=none;align=center;verticalAlign=middle;whiteSpace=wrap;rounded=0;shadow=0;glass=0;sketch=1;" vertex="1" parent="1">
          <mxGeometry x="332" y="203" width="200" height="20" as="geometry" />
        </mxCell>
      </root>
    </mxGraphModel>
  </diagram>
</mxfile>
